PathFileType	4	(X/Y/Z)	s01c0202.trc
DataRate	CameraRate	NumFrames	NumMarkers	Units	OrigDataRate	OrigDataStartFrame	OrigNumFrames
200	200	4	48	mm	200	0	2000
Frame#	Time	racr			lacr			c7			jug			rlel			rdr			llel			ldr			s2			lic			ric			lasi			rasi			rpsi			lpsi			rgt			lgt			rth1			rth2			rth3			rth4			rlfc			rsh1			rsh2			rsh3			rsh4			rlmal			rmmal			rcal			rtoe			rmt5			lth1			lth2			lth4			lth3			llfc			lsh1			lsh2			lsh3			lsh4			llmal			lmmal			lcal			ltoe			lmt5			SBIKE			LBIKE			RBIKE			
		X1	Y1	Z1	X2	Y2	Z2	X3	Y3	Z3	X4	Y4	Z4	X5	Y5	Z5	X6	Y6	Z6	X7	Y7	Z7	X8	Y8	Z8	X9	Y9	Z9	X10	Y10	Z10	X11	Y11	Z11	X12	Y12	Z12	X13	Y13	Z13	X14	Y14	Z14	X15	Y15	Z15	X16	Y16	Z16	X17	Y17	Z17	X18	Y18	Z18	X19	Y19	Z19	X20	Y20	Z20	X21	Y21	Z21	X22	Y22	Z22	X23	Y23	Z23	X24	Y24	Z24	X25	Y25	Z25	X26	Y26	Z26	X27	Y27	Z27	X28	Y28	Z28	X29	Y29	Z29	X30	Y30	Z30	X31	Y31	Z31	X32	Y32	Z32	X33	Y33	Z33	X34	Y34	Z34	X35	Y35	Z35	X36	Y36	Z36	X37	Y37	Z37	X38	Y38	Z38	X39	Y39	Z39	X40	Y40	Z40	X41	Y41	Z41	X42	Y42	Z42	X43	Y43	Z43	X44	Y44	Z44	X45	Y45	Z45	X46	Y46	Z46	X47	Y47	Z47	X48	Y48	Z48	
0	0.0000	451.805625	1353.929377	-136.108496	449.982071	1353.776152	-440.838820	402.242248	1409.740251	-280.207612	427.418761	1252.681449	-285.864850	549.651507	1104.004507	-38.016650	711.289800	895.290033	-57.312297	549.445223	1098.096580	-506.033531	695.232284	892.069835	-474.813714	-95.116418	1144.769795	-254.365577	92.930367	1153.333244	-444.092662	75.537589	1138.572197	-107.397120	71.499295	1100.316383	-408.765133	97.396666	1087.370067	-134.062441	-64.392449	1180.585302	-201.520689	-71.649633	1184.643344	-309.375965	11.036279	1019.284003	-76.777402	10.123963	1044.386739	-469.341671	82.012189	896.404192	-62.702225	128.517258	829.057009	-75.192285	173.604039	752.725631	-93.461606	173.966123	859.127813	-89.167648	205.519153	651.400760	-119.203010	146.233237	549.426575	-82.845446	125.885515	467.073290	-81.598694	95.712019	383.017889	-90.314290	173.042313	452.510196	-116.618147	51.351025	261.389005	-106.895384	0.000000	0.000000	-0.000000	8.309947	232.109246	-162.934820	273.543354	180.315177	-140.217048	164.278454	163.096908	-74.521004	112.309110	977.618851	-475.055604	200.783908	976.577453	-485.206625	203.617508	1030.675231	-475.810865	286.274622	967.367097	-478.297269	395.623100	909.068647	-461.830353	310.682155	833.610330	-476.494556	267.874984	759.705725	-462.420874	224.654703	688.493455	-440.778030	319.254148	735.988431	-436.442500	164.974244	577.771816	-413.241503	195.884332	587.974027	-332.060156	111.825911	542.364477	-368.685761	386.891709	514.368811	-385.511693	279.596987	495.971018	-447.766528	-230.478694	890.469709	-255.529331	-22.725869	80.533185	-456.409346	-22.931633	80.512830	-56.046575	
1	0.0050	452.253153	1354.122613	-135.781007	450.002118	1353.798476	-440.866615	402.278237	1409.795924	-280.206678	427.461768	1252.586241	-285.798562	549.672669	1104.001543	-38.020308	711.290130	895.313271	-57.314123	549.444267	1098.139279	-506.049354	695.233907	892.078353	-474.790386	-95.106175	1144.784893	-254.369733	92.951340	1153.408817	-444.156965	75.576714	1138.545985	-107.406704	71.522354	1100.291198	-408.756104	97.428299	1087.342959	-134.010971	-64.354669	1180.580134	-201.525150	-71.611327	1184.648770	-309.383223	11.063733	1019.288885	-76.790646	10.148914	1044.392804	-469.345766	82.039188	896.382387	-62.710510	128.537763	829.049395	-75.210249	173.635404	752.714328	-93.482557	173.987574	859.118376	-89.197887	205.532493	651.407646	-119.197603	146.245344	549.453528	-82.861155	125.896551	467.063949	-81.608737	95.713022	383.017755	-90.315502	173.058496	452.517217	-116.617964	51.361437	261.391643	-106.903777	0.000000	0.000000	-0.000000	8.332878	232.118978	-162.944888	273.549584	180.316248	-140.201935	164.269847	163.120285	-74.522563	112.345214	977.608129	-475.073133	200.793225	976.603912	-485.242674	203.653044	1030.883357	-476.204461	286.282136	967.363954	-478.320181	395.633942	909.071587	-461.842376	310.685091	833.618724	-476.510727	267.874075	759.705555	-462.426011	224.657058	688.495423	-440.789457	319.260039	735.991182	-436.428920	164.970668	577.765056	-413.246428	195.430509	588.048319	-331.593642	111.829573	542.360530	-368.690202	386.888800	514.388237	-385.516388	279.601384	495.988799	-447.761175	-230.470060	890.471837	-255.530216	-22.718968	80.512344	-456.413244	-22.937714	80.509548	-56.054081	
2	0.0100	451.906637	1353.937981	-136.154537	450.042972	1353.822299	-440.890799	402.294247	1409.832533	-280.247245	427.530590	1252.552965	-285.793230	549.687643	1104.019960	-38.008829	711.282164	895.307252	-57.318140	549.481641	1098.159521	-506.051723	695.228813	892.084115	-474.794355	-95.104501	1144.797987	-254.340052	92.963527	1153.375005	-444.196149	75.605194	1138.508654	-107.404269	71.549207	1100.258158	-408.751727	97.459008	1087.287278	-134.012712	-64.332049	1180.578408	-201.513812	-71.608178	1184.645063	-309.361829	11.083037	1019.269682	-76.788137	10.156219	1044.399194	-469.328162	82.056304	896.380659	-62.712548	128.548149	829.046635	-75.205129	173.647930	752.712179	-93.497043	174.007836	859.114830	-89.191981	205.557111	651.403822	-119.208437	146.271219	549.449930	-82.860854	125.914354	467.077024	-81.604075	95.737384	383.017634	-90.325219	173.076669	452.511574	-116.624241	51.352912	261.403504	-106.895065	0.000000	0.000000	-0.000000	8.333299	232.137607	-162.953389	273.560397	180.311778	-140.216559	164.271692	163.109183	-74.538222	112.377509	977.598376	-475.091440	200.794625	976.592851	-485.244098	203.664977	1030.885092	-476.214788	286.309115	967.358869	-478.335329	395.629499	909.076640	-461.856854	310.683648	833.607728	-476.531442	267.872492	759.707164	-462.436736	224.662458	688.491440	-440.797721	319.267174	735.989697	-436.444238	164.849638	577.830960	-413.503471	195.885842	587.951405	-332.070877	111.519985	542.287858	-369.205512	386.887440	514.382023	-385.502105	279.610691	495.991737	-447.750421	-230.472805	890.464440	-255.531444	-22.726119	80.537591	-456.399124	-22.933633	80.514753	-56.055507	
3	0.0150	451.955651	1353.979971	-136.141624	449.151643	1352.885214	-440.702150	402.349324	1408.672424	-280.635340	427.591502	1252.589939	-285.807851	549.720222	1104.030719	-38.007094	712.116991	895.508926	-57.434601	549.493022	1098.156917	-506.055983	698.647215	895.997645	-472.151977	-94.992631	1144.917345	-254.775361	92.986037	1153.381943	-444.263785	75.718730	1138.663682	-107.273352	71.555608	1100.234094	-408.766573	97.829651	1087.370025	-133.988318	-64.351670	1180.543773	-201.510318	-71.284628	1184.414080	-309.626704	11.190486	1019.131235	-76.685357	10.289649	1044.331144	-469.347305	82.193655	896.490583	-62.417702	128.566864	829.042909	-75.218541	173.763606	752.805845	-93.492889	174.021050	859.058732	-89.186130	205.581360	651.396733	-119.215958	146.368533	549.447426	-82.867513	125.935412	467.067916	-81.631761	95.743808	383.018011	-90.320841	173.091777	452.509677	-116.637886	51.236321	261.499408	-106.866881	0.000000	0.000000	-0.000000	8.344072	232.139375	-162.956837	273.548549	180.313409	-140.208570	164.280577	163.117305	-74.527927	112.407535	977.590029	-475.109496	200.801102	976.592723	-485.251355	212.357072	1030.252774	-468.757774	286.294330	967.352064	-478.338476	395.757124	909.180188	-461.715829	310.688092	833.593368	-476.533239	268.517262	758.461797	-464.815729	224.836388	688.537469	-440.803388	319.752130	735.354763	-437.418889	164.738090	577.903071	-413.696984	193.073237	587.711421	-329.410045	111.347334	542.275655	-369.467143	386.890182	514.367534	-385.498093	279.602105	495.994587	-447.759016	-230.666012	890.552557	-255.926523	-22.731378	80.529179	-456.401279	-22.943856	80.524922	-56.057277	
